<svg width="256" height="256" viewBox="0 0 256 256" fill="none" xmlns="http://www.w3.org/2000/svg">
  <path d="M98 118V72C98 63.1634 105.163 56 114 56C122.837 56 130 63.1634 130 72V110M130 110V60C130 51.1634 137.163 44 146 44C154.837 44 162 51.1634 162 60V116M130 110V150M162 116V72C162 63.1634 169.163 56 178 56C186.837 56 194 63.1634 194 72V132M98 116V96C98 87.1634 90.8366 80 82 80C73.1634 80 66 87.1634 66 96V152C66 186.242 93.7583 214 128 214C162.242 214 190 186.242 190 152V128C190 119.163 182.837 112 174 112C165.163 112 158 119.163 158 128V144" stroke="#20201D" stroke-width="14" stroke-linecap="round" stroke-linejoin="round"/>
</svg>
